<svg width="132" height="132" viewBox="0 0 132 132" fill="none" xmlns="http://www.w3.org/2000/svg">
<circle cx="66" cy="66" r="66" fill="#D0113A"/>
<path d="M91.8195 82.4055C91.8195 83.3366 91.6126 84.2935 91.173 85.2246C90.7333 86.1556 90.1643 87.035 89.4143 87.8626C88.1471 89.2591 86.7505 90.2678 85.1728 90.9144C83.6211 91.5609 81.94 91.8971 80.1296 91.8971C77.4917 91.8971 74.6726 91.2764 71.6984 90.0092C68.7242 88.7419 65.75 87.035 62.8017 84.8884C59.8275 82.7159 57.0084 80.3107 54.3187 77.6468C51.6549 74.9571 49.2497 72.1381 47.1031 69.1897C44.9823 66.2414 43.2754 63.2931 42.034 60.3706C40.7926 57.4222 40.1719 54.6032 40.1719 51.9135C40.1719 50.1548 40.4822 48.4738 41.1029 46.922C41.7236 45.3444 42.7064 43.8961 44.0771 42.603C45.7323 40.9736 47.5427 40.1719 49.4566 40.1719C50.1807 40.1719 50.9049 40.3271 51.5514 40.6374C52.2239 40.9478 52.8187 41.4133 53.2842 42.0857L59.2844 50.5428C59.7499 51.1894 60.0861 51.7842 60.3189 52.3532C60.5516 52.8963 60.6809 53.4394 60.6809 53.9308C60.6809 54.5515 60.4999 55.1722 60.1378 55.767C59.8016 56.3619 59.3102 56.9826 58.6895 57.6033L56.724 59.6464C56.4395 59.9309 56.3102 60.2671 56.3102 60.6809C56.3102 60.8878 56.336 61.0689 56.3877 61.2758C56.4653 61.4827 56.5429 61.6379 56.5946 61.793C57.0602 62.6465 57.8619 63.7586 58.9999 65.1035C60.1637 66.4483 61.4051 67.819 62.7499 69.1897C64.1465 70.5605 65.4914 71.8277 66.8621 72.9916C68.207 74.1295 69.3191 74.9054 70.1984 75.3709C70.3277 75.4226 70.4829 75.5002 70.6639 75.5778C70.8708 75.6554 71.0777 75.6813 71.3105 75.6813C71.7501 75.6813 72.0864 75.5261 72.3708 75.2416L74.3364 73.3019C74.983 72.6553 75.6037 72.1639 76.1985 71.8536C76.7934 71.4915 77.3882 71.3105 78.0348 71.3105C78.5262 71.3105 79.0434 71.4139 79.6124 71.6467C80.1814 71.8795 80.7762 72.2157 81.4228 72.6553L89.9833 78.7331C90.6557 79.1986 91.1213 79.7417 91.4057 80.3883C91.6644 81.0348 91.8195 81.6814 91.8195 82.4055Z" stroke="white" stroke-width="3.87939" stroke-miterlimit="10"/>
<path d="M82.841 58.2765C82.841 56.7248 81.6254 54.3454 79.8151 52.4057C78.1598 50.6212 75.9615 49.2246 73.7891 49.2246" stroke="white" stroke-width="3.87939" stroke-linecap="round" stroke-linejoin="round"/>
<path d="M91.8929 58.2757C91.8929 48.2669 83.7979 40.1719 73.7891 40.1719" stroke="white" stroke-width="3.87939" stroke-linecap="round" stroke-linejoin="round"/>
</svg>
