<svg width="71" height="71" viewBox="0 0 71 71" fill="none" xmlns="http://www.w3.org/2000/svg">
<path d="M23.8197 9.08203C15.7916 9.08203 9.28125 15.5924 9.28125 23.6205V46.882C9.28125 54.9102 15.7916 61.4205 23.8197 61.4205H47.0812C55.1094 61.4205 61.6197 54.9102 61.6197 46.882V23.6205C61.6197 15.5924 55.1094 9.08203 47.0812 9.08203H23.8197ZM52.8966 14.8974C54.5017 14.8974 55.8043 16.2001 55.8043 17.8051C55.8043 19.4102 54.5017 20.7128 52.8966 20.7128C51.2916 20.7128 49.9889 19.4102 49.9889 17.8051C49.9889 16.2001 51.2916 14.8974 52.8966 14.8974ZM35.4505 20.7128C43.4786 20.7128 49.9889 27.2231 49.9889 35.2513C49.9889 43.2794 43.4786 49.7897 35.4505 49.7897C27.4223 49.7897 20.912 43.2794 20.912 35.2513C20.912 27.2231 27.4223 20.7128 35.4505 20.7128ZM35.4505 26.5282C33.137 26.5282 30.9182 27.4472 29.2823 29.0831C27.6464 30.719 26.7274 32.9378 26.7274 35.2513C26.7274 37.5648 27.6464 39.7835 29.2823 41.4194C30.9182 43.0553 33.137 43.9743 35.4505 43.9743C37.764 43.9743 39.9827 43.0553 41.6186 41.4194C43.2545 39.7835 44.1736 37.5648 44.1736 35.2513C44.1736 32.9378 43.2545 30.719 41.6186 29.0831C39.9827 27.4472 37.764 26.5282 35.4505 26.5282Z" fill="#D0113A"/>
</svg>
