<svg width="70" height="71" viewBox="0 0 70 71" fill="none" xmlns="http://www.w3.org/2000/svg">
<path d="M55.3512 9.08203H14.6435C11.4305 9.08203 8.82812 11.6844 8.82812 14.8974V55.6051C8.82812 58.8181 11.4305 61.4205 14.6435 61.4205H55.3512C58.5642 61.4205 61.1666 58.8181 61.1666 55.6051V14.8974C61.1666 11.6844 58.5642 9.08203 55.3512 9.08203ZM26.2743 49.7897H18.9382V29.4359H26.2743V49.7897ZM22.4768 25.7053C20.235 25.7053 18.7375 24.2108 18.7375 22.2161C18.7375 20.2214 20.2321 18.7268 22.724 18.7268C24.9658 18.7268 26.4633 20.2214 26.4633 22.2161C26.4633 24.2108 24.9687 25.7053 22.4768 25.7053ZM52.4435 49.7897H45.3429V38.6649C45.3429 35.5886 43.45 34.8791 42.7405 34.8791C42.0311 34.8791 39.6642 35.353 39.6642 38.6649C39.6642 39.1388 39.6642 49.7897 39.6642 49.7897H32.3281V29.4359H39.6642V32.2767C40.6092 30.6193 42.5021 29.4359 46.0524 29.4359C49.6027 29.4359 52.4435 32.2767 52.4435 38.6649V49.7897Z" fill="#D0113A"/>
</svg>
