<svg width="307" height="126" viewBox="0 0 307 126" fill="none" xmlns="http://www.w3.org/2000/svg">
<path d="M233.973 26.5254C232.41 24.7842 229.776 23.1323 226.606 23.1323C216.427 23.1323 213.078 32.2402 213.078 40.8124C213.078 48.8042 216.561 56.7066 226.16 56.7066C228.794 56.7066 231.874 55.1887 232.857 53.5367V56.3048C232.857 61.2606 232.455 63.6269 226.026 63.6269C222.945 63.6269 219.329 62.5107 216.159 60.8588L214.06 66.7968C218.212 68.8506 222.141 70.1007 226.472 70.1007C229.821 70.1007 234.553 69.5649 237.589 66.9308C240.804 64.2966 240.938 59.6087 240.938 55.0547L240.982 23.043L234.598 24.0698C234.598 23.9806 234.107 25.8111 233.973 26.5254ZM232.857 43.268C232.857 44.786 232.723 46.3039 232.142 47.5541C231.428 49.072 230.044 50.0543 228.258 50.0543C223.124 50.0543 222.543 46.4825 222.543 39.6962C222.543 33.6243 223.659 30.0525 228.124 30.0525C230.356 30.0525 232.008 31.1687 232.857 32.1063V43.268Z" fill="#D0103A"/>
<path d="M202.46 104.701L202.505 93.6734C202.505 90.2803 202.371 89.2534 201.924 87.8694C200.674 84.2976 196.924 82.1992 191.343 82.1992C188.262 82.1992 185.494 82.735 182.28 84.119C180.494 84.878 178.752 85.8603 177.101 86.8425L180.27 92.468C184.199 90.0124 187.28 89.0302 190.048 89.0302C193.263 89.0302 194.022 90.4589 194.022 94.0306V95.2807H192.013C181.565 95.2807 176.297 98.8525 176.297 106.442C176.297 112.336 179.511 115.997 185.673 116.577H189.155C191.12 116.354 192.772 115.729 194.111 114.881C194.825 114.479 195.495 113.764 196.209 113.05C196.924 114.434 198.263 115.729 199.781 116.577L200.808 117.068L201.254 116.577L205.674 111.845C202.772 109.657 202.46 108.05 202.46 104.701ZM189.289 110.505C187.057 110.505 185.539 108.719 185.539 106.219C185.539 102.335 187.503 100.906 193.486 100.906H193.977V108.496C192.682 109.88 190.941 110.505 189.289 110.505Z" fill="#D0103A"/>
<path d="M44.5343 12.0586H9.84375V46.4813L27.3006 63.8489L62.0358 29.4262L44.5343 12.0586Z" fill="#D0103A"/>
<path d="M9.84375 81.2172V115.685H44.5343L62.0358 98.3169L27.3006 63.8496L9.84375 81.2172Z" fill="#D0103A"/>
<path d="M79.4881 115.685H114V80.9493L96.7664 63.8496L62.0312 98.3169L79.4881 115.685Z" fill="#D0103A"/>
<path d="M62.0312 29.4262L96.7664 63.8489L114 46.7491V12.0586H79.4881L62.0312 29.4262Z" fill="#D0103A"/>
<path d="M297.633 50.4554C296.115 50.8573 295.401 51.1698 294.597 51.1698C291.651 51.1698 290.847 50.0536 290.847 45.9015V29.6054H296.249L298.482 23.6674H290.847V14.6934L282.364 16.0774V23.6674H279.016V29.6054H282.364V47.2855C282.364 50.3215 282.364 50.8573 282.9 52.2859C283.882 55.188 287.365 57.1078 291.651 57.1078C293.883 57.1078 296.249 56.572 298.749 55.5898L297.633 50.4554Z" fill="#D0103A"/>
<path d="M139.761 33.1765L153.2 56.2589H164.54L149.137 32.5068L163.022 12.0586H152.441L139.761 32.2389V12.0586H130.742V56.2589H139.761V33.1765Z" fill="#D0103A"/>
<path d="M181.419 30.2724C183.785 30.2724 184.455 31.7904 184.455 35.4961V56.2122H192.804V32.5047C192.804 30.4063 192.67 29.0669 192.268 27.8168C191.286 25.0487 187.937 23.1289 184.321 23.1289C182.356 23.1289 180.169 23.5307 178.472 24.513C177.088 25.2273 175.704 26.2988 174.722 27.5489L174.186 23.2182L166.953 24.379V56.2568H175.57V37.0587C175.57 34.6924 176.284 33.0405 177.4 31.969C178.651 30.8528 180.035 30.2724 181.419 30.2724Z" fill="#D0103A"/>
<path d="M199.328 56.2599H207.99V22.998L199.328 24.3375V56.2599Z" fill="#D0103A"/>
<path d="M265.221 22.8601C261.471 22.8601 258.257 24.2442 255.89 26.8337C255.89 26.4319 256.024 24.4674 256.024 23.5298V11.252L247.273 12.6806V56.3006H256.024V38.3079C256.024 35.2719 256.426 33.5307 257.408 32.3699C258.703 30.8519 260.891 30.0036 262.855 30.0036C265.355 30.0036 266.204 31.3877 266.204 34.4236V56.2559H274.553V33.4861C274.553 30.3161 274.419 29.3339 273.704 27.548C272.722 24.646 269.418 22.8601 265.221 22.8601Z" fill="#D0103A"/>
<path d="M203.704 9.42383C200.757 9.42383 198.391 11.7901 198.391 14.7368C198.391 17.6835 200.757 20.0498 203.704 20.0498C206.65 20.0498 209.017 17.6835 209.017 14.7368C209.017 11.8348 206.65 9.42383 203.704 9.42383Z" fill="#D0103A"/>
<path d="M130.664 115.458H139.415V95.8585H150.844V88.715H139.415V78.3569H153.613L154.729 71.3027H130.664V115.458Z" fill="#D0103A"/>
<path d="M163.782 87.1522L162.934 82.7322L155.969 83.8484V115.458H164.586V95.278C164.586 93.626 164.853 92.242 165.836 91.1704C166.684 90.2775 168.068 89.6525 169.631 89.6525C170.613 89.6525 171.729 89.9203 172.577 90.3222L174.765 82.7322C173.381 82.1964 172.801 82.0625 171.55 82.0625C168.336 82.0625 165.166 84.9645 163.782 87.1522Z" fill="#D0103A"/>
<path d="M242 72.1536V115.461H250.617V96.9772V70.7695L242 72.1536Z" fill="#D0103A"/>
<path d="M269.555 82.8691H259.108L250.625 96.9775L261.831 115.461H271.922L258.974 96.5757L269.555 82.8691Z" fill="#D0103A"/>
<path d="M227.008 82.332C225.044 82.332 222.811 82.7338 221.159 83.7161C219.775 84.4304 218.391 85.502 217.409 86.7521L216.873 82.4213L209.641 83.5821V115.46H218.257V96.2618C218.257 93.8955 218.972 92.2436 220.088 91.1274C221.338 90.0113 222.722 89.4755 224.106 89.4755C226.472 89.4755 227.187 90.9935 227.187 94.7438V115.46H235.536V91.7079C235.536 89.6541 235.402 88.2701 235 87.0199C233.973 84.2965 230.625 82.332 227.008 82.332Z" fill="#D0103A"/>
</svg>
