<svg width="38" height="46" viewBox="0 0 38 46" fill="none" xmlns="http://www.w3.org/2000/svg">
<path d="M35.75 12.5312V33.4688C35.75 41.8438 33.6562 43.9375 25.2812 43.9375H12.7188C4.34375 43.9375 2.25 41.8438 2.25 33.4688V12.5312C2.25 4.15625 4.34375 2.0625 12.7188 2.0625H25.2812C33.6562 2.0625 35.75 4.15625 35.75 12.5312Z" stroke="#D0113A" stroke-width="3.14062" stroke-linecap="round" stroke-linejoin="round"/>
<path d="M23.1875 9.39062H14.8125" stroke="#D0113A" stroke-width="3.14062" stroke-linecap="round" stroke-linejoin="round"/>
<path d="M19.0031 37.8656C20.7955 37.8656 22.2484 36.4126 22.2484 34.6203C22.2484 32.828 20.7955 31.375 19.0031 31.375C17.2108 31.375 15.7578 32.828 15.7578 34.6203C15.7578 36.4126 17.2108 37.8656 19.0031 37.8656Z" stroke="#D0113A" stroke-width="3.14062" stroke-linecap="round" stroke-linejoin="round"/>
</svg>
