<svg width="71" height="71" viewBox="0 0 71 71" fill="none" xmlns="http://www.w3.org/2000/svg">
<path fill-rule="evenodd" clip-rule="evenodd" d="M53.6037 8.42969C57.7347 8.42969 61.0806 11.7756 61.0806 15.9066V53.2912C61.0806 57.4222 57.7347 60.7681 53.6037 60.7681H16.2191C12.0881 60.7681 8.74219 57.4222 8.74219 53.2912V15.9066C8.74219 11.7756 12.0881 8.42969 16.2191 8.42969H53.6037ZM22.8812 50.8412H19.0497L19.0402 50.8508L31.3201 36.8946L18.111 19.6624H28.8488L36.9907 30.4385L46.4832 19.6529H50.3147L38.7628 32.7757L52.4124 50.822H42.0099L33.1113 39.2126L22.8812 50.8412ZM27.4311 22.5265H23.954L43.4372 47.9484H46.646L27.4311 22.5265Z" fill="#D0113A"/>
</svg>
