<svg width="48" height="48" viewBox="0 0 48 48" fill="none" xmlns="http://www.w3.org/2000/svg">
<path d="M24.0078 44.0019C35.0535 44.0019 44.0078 35.0476 44.0078 24.002C44.0078 12.9563 35.0535 4.00195 24.0078 4.00195C12.9621 4.00195 4.00781 12.9563 4.00781 24.002C4.00781 35.0476 12.9621 44.0019 24.0078 44.0019Z" stroke="#D0113A" stroke-width="3" stroke-linecap="round" stroke-linejoin="round"/>
<path d="M16.0109 6.00195H18.0109C14.1109 17.682 14.1109 30.322 18.0109 42.002H16.0109" stroke="#D0113A" stroke-width="3" stroke-linecap="round" stroke-linejoin="round"/>
<path d="M30.0078 6.00195C33.9078 17.682 33.9078 30.322 30.0078 42.002" stroke="#D0113A" stroke-width="3" stroke-linecap="round" stroke-linejoin="round"/>
<path d="M6.00781 32.002V30.002C17.6878 33.902 30.3278 33.902 42.0078 30.002V32.002" stroke="#D0113A" stroke-width="3" stroke-linecap="round" stroke-linejoin="round"/>
<path d="M6.00781 18.0012C17.6878 14.1012 30.3278 14.1012 42.0078 18.0012" stroke="#D0113A" stroke-width="3" stroke-linecap="round" stroke-linejoin="round"/>
</svg>
