<svg width="132" height="132" viewBox="0 0 132 132" fill="none" xmlns="http://www.w3.org/2000/svg">
<circle cx="66" cy="66" r="66" fill="#D0113A"/>
<path d="M52.8446 88.2764C56.724 90.604 61.3792 91.8971 66.0345 91.8971C80.259 91.8971 91.8971 80.259 91.8971 66.0345C91.8971 51.8101 80.259 40.1719 66.0345 40.1719C51.8101 40.1719 40.1719 51.8101 40.1719 66.0345C40.1719 70.6898 41.465 75.0864 43.534 78.9658L41.311 87.516C40.8074 89.4529 42.6002 91.2033 44.5245 90.6535L52.8446 88.2764Z" stroke="white" stroke-width="3.87939" stroke-miterlimit="10" stroke-linecap="round" stroke-linejoin="round"/>
<path d="M77.6748 73.4016C77.6748 73.8206 77.5816 74.2512 77.3834 74.6702C77.1853 75.0892 76.9288 75.4849 76.5908 75.8573C76.0197 76.4858 75.3903 76.9396 74.6793 77.2306C73.98 77.5216 73.2223 77.6729 72.4064 77.6729C71.2176 77.6729 69.9471 77.3935 68.6067 76.8233C67.2663 76.253 65.9259 75.4849 64.5971 74.5189C63.2567 73.5413 61.9863 72.4589 60.7741 71.2602C59.5736 70.0498 58.4896 68.7813 57.5222 67.4545C56.5664 66.1278 55.7971 64.801 55.2376 63.4859C54.6782 62.1592 54.3984 60.8906 54.3984 59.6802C54.3984 58.8888 54.5383 58.1323 54.818 57.4341C55.0978 56.7241 55.5407 56.0724 56.1584 55.4905C56.9044 54.7573 57.7203 54.3965 58.5828 54.3965C58.9092 54.3965 59.2355 54.4663 59.5269 54.606C59.83 54.7456 60.0981 54.9551 60.3079 55.2577L63.012 59.0634C63.2218 59.3544 63.3733 59.622 63.4782 59.8781C63.5831 60.1225 63.6414 60.3669 63.6414 60.588C63.6414 60.8673 63.5598 61.1466 63.3966 61.4143C63.2451 61.682 63.0236 61.9613 62.7439 62.2406L61.8581 63.16C61.7299 63.2881 61.6716 63.4394 61.6716 63.6256C61.6716 63.7187 61.6832 63.8001 61.7065 63.8932C61.7415 63.9863 61.7765 64.0562 61.7998 64.126C62.0096 64.5101 62.3709 65.0105 62.8838 65.6157C63.4083 66.2209 63.9677 66.8377 64.5738 67.4545C65.2032 68.0714 65.8093 68.6416 66.4271 69.1653C67.0332 69.6774 67.5344 70.0266 67.9307 70.2361C67.9889 70.2593 68.0589 70.2942 68.1405 70.3292C68.2337 70.3641 68.327 70.3757 68.4319 70.3757C68.63 70.3757 68.7815 70.3059 68.9097 70.1779L69.7956 69.305C70.087 69.014 70.3667 68.7929 70.6348 68.6533C70.9029 68.4903 71.1709 68.4089 71.4623 68.4089C71.6838 68.4089 71.9169 68.4554 72.1733 68.5602C72.4298 68.6649 72.6978 68.8162 72.9892 69.014L76.8473 71.749C77.1503 71.9585 77.3601 72.2029 77.4883 72.4939C77.6049 72.7848 77.6748 73.0758 77.6748 73.4016Z" stroke="white" stroke-width="3.87939" stroke-miterlimit="10"/>
</svg>
