<svg width="70" height="71" viewBox="0 0 70 71" fill="none" xmlns="http://www.w3.org/2000/svg">
<path d="M62.9697 18.3465C62.3009 15.8458 60.3295 13.8744 57.8289 13.2057C53.2929 11.9902 35.1082 11.9902 35.1082 11.9902C35.1082 11.9902 16.9235 11.9902 12.3875 13.2057C9.88685 13.8744 7.91543 15.8458 7.24667 18.3465C6.03125 22.8825 6.03125 35.2518 6.03125 35.2518C6.03125 35.2518 6.03125 47.6211 7.24667 52.1571C7.91543 54.6577 9.88685 56.6291 12.3875 57.2979C16.9235 58.5133 35.1082 58.5133 35.1082 58.5133C35.1082 58.5133 53.2929 58.5133 57.8289 57.2979C60.3324 56.6291 62.3009 54.6577 62.9697 52.1571C64.1851 47.6211 64.1851 35.2518 64.1851 35.2518C64.1851 35.2518 64.1851 22.8825 62.9697 18.3465ZM29.2928 45.324V25.1795L46.739 35.2518L29.2928 45.324Z" fill="#D0113A"/>
</svg>
